<?xml version="1.0" standalone="no"?><!DOCTYPE svg PUBLIC "-//W3C//DTD SVG 1.1//EN" "http://www.w3.org/Graphics/SVG/1.1/DTD/svg11.dtd"><svg t="1737787697990" class="icon" viewBox="0 0 1024 1024" version="1.1" xmlns="http://www.w3.org/2000/svg" p-id="5168" xmlns:xlink="http://www.w3.org/1999/xlink" width="200" height="200"><path d="M879.253333 904.832l-746.666666-746.666667 60.330666-60.330666 746.666667 746.666666-60.330667 60.330667z" p-id="5169"></path><path d="M614.506667 121.514667C585.408 90.453333 533.333333 111.061333 533.333333 153.6v138.56c-4.821333 0-8.32-0.064-11.328-0.106667h-0.618666a205.312 205.312 0 0 0-9.664 0c-7.616 0.213333-14.528 1.194667-24.981334 2.837334l13.376 84.288c10.389333-1.642667 12.544-1.792 14.208-1.834667a134.186667 134.186667 0 0 1 5.824 0l0.512 0.021333c3.093333 0.064 7.168 0.128 12.672 0.128 12.928 0 25.685333 0.661333 38.229334 1.984l47.104 4.906667v-133.674667l218.517333 233.088-96.853333 98.432 60.842666 59.84 111.914667-113.770666 0.362667-0.362667a64 64 0 0 0 0-87.552L614.506667 121.514667zM300.565333 357.312a448.768 448.768 0 0 0-51.264 36.373333C149.248 475.776 85.333333 600.512 85.333333 740.138667c0 3.541333 0.042667 7.061333 0.128 10.581333 0.853333 37.44 45.845333 55.744 72.661334 29.845333A446.357333 446.357333 0 0 1 469.333333 654.826667c21.76 0 43.114667 1.536 64 4.522666v155.349334c0 42.261333 51.413333 62.869333 80.597334 32.682666l91.136-92.032-60.629334-60.032L618.666667 721.344v-131.818667l-33.429334-7.402666A535.04 535.04 0 0 0 469.333333 569.493333a530.986667 530.986667 0 0 0-288.426666 84.629334 364.010667 364.010667 0 0 1 164.032-223.936l-44.373334-72.874667z" p-id="5170"></path></svg>
