<?xml version="1.0" standalone="no"?><!DOCTYPE svg PUBLIC "-//W3C//DTD SVG 1.1//EN" "http://www.w3.org/Graphics/SVG/1.1/DTD/svg11.dtd"><svg t="1737824314420" class="icon" viewBox="0 0 1024 1024" version="1.1" xmlns="http://www.w3.org/2000/svg" p-id="8813" xmlns:xlink="http://www.w3.org/1999/xlink" width="200" height="200"><path d="M499.428571 936l0 37.714286q-118.857143-3.428571-220-62.571429t-161.714286-157.428571l33.142857-19.428571q16.571429 28 41.714286 56.571429l37.142857-32.571429q84.571429 96 210.285714 121.142857l-9.714286 49.142857q37.142857 6.857143 69.142857 7.428571zm-341.714286-302.857143l-47.428571 16q12.571429 34.285714 28 64l-32.571429 18.857143q-56-102.857143-56-220t56-220l32.571429 18.857143q-17.142857 32-28 64l46.857143 16q-20 57.142857-20 121.142857 0 62.285714 20.571429 121.142857zm715.428571 101.142857l33.142857 19.428571q-60.571429 98.285714-161.714286 157.428571t-220 62.571429l0-37.714286q32-0.571429 69.142857-7.428571l-9.714286-49.142857q125.714286-25.142857 210.285714-121.142857l37.142857 32.571429q25.142857-28.571429 41.714286-56.571429zm-86.285714-316.571429l-133.142857 45.714286q8 24 8 48.571429t-8 48.571429l132.571429 45.714286q-17.714286 52.571429-56 96.571429l-105.714286-92.571429q-32.571429 38.285714-84 48.571429l27.428571 137.714286q-29.714286 5.714286-56 5.714286t-56-5.714286l27.428571-137.714286q-51.428571-10.285714-84-48.571429l-105.714286 92.571429q-38.285714-44-56-96.571429l132.571429-45.714286q-8-24-8-48.571429t8-48.571429l-133.142857-45.714286q18.857143-53.142857 56.571429-96.571429l105.714286 92.571429q33.714286-38.857143 84-49.142857l-27.428571-137.142857q25.142857-5.714286 56-5.714286t56 5.714286l-27.428571 137.142857q50.285714 10.285714 84 49.142857l105.714286-92.571429q37.714286 43.428571 56.571429 96.571429zm-287.428571-367.428571l0 37.714286q-37.142857 1.142857-69.142857 7.428571l9.714286 49.142857q-125.714286 24-210.285714 120.571429l-37.142857-32q-21.714286 24-41.714286 56l-32.571429-18.857143q60.571429-98.285714 161.142857-157.428571t220-62.571429zm474.857143 461.714286q0 117.142857-56 220l-32.571429-18.857143q15.428571-29.714286 28-64l-47.428571-16q20.571429-58.857143 20.571429-121.142857 0-64-20-121.142857l46.857143-16q-10.857143-32-28-64l32.571429-18.857143q56 102.857143 56 220zm-68.571429-241.714286l-32.571429 18.857143q-20-32-41.714286-56l-37.142857 32q-84.571429-96.571429-210.285714-120.571429l9.714286-49.142857q-32-6.285714-69.142857-7.428571l0-37.714286q119.428571 3.428571 220 62.571429t161.142857 157.428571zm93.142857 241.714286q0-98.857143-38.571429-189.142857t-103.714286-155.428571-155.428571-103.714286-189.142857-38.571429-189.142857 38.571429-155.428571 103.714286-103.714286 155.428571-38.571429 189.142857 38.571429 189.142857 103.714286 155.428571 155.428571 103.714286 189.142857 38.571429 189.142857-38.571429 155.428571-103.714286 103.714286-155.428571 38.571429-189.142857zm25.142857 0q0 104-40.571429 198.857143t-109.142857 163.428571-163.428571 109.142857-198.857143 40.571429-198.857143-40.571429-163.428571-109.142857-109.142857-163.428571-40.571429-198.857143 40.571429-198.857143 109.142857-163.428571 163.428571-109.142857 198.857143-40.571429 198.857143 40.571429 163.428571 109.142857 109.142857 163.428571 40.571429 198.857143z" p-id="8814"></path></svg>