<?xml version="1.0" standalone="no"?><!DOCTYPE svg PUBLIC "-//W3C//DTD SVG 1.1//EN" "http://www.w3.org/Graphics/SVG/1.1/DTD/svg11.dtd"><svg t="1738342944102" class="icon" viewBox="0 0 1053 1024" version="1.1" xmlns="http://www.w3.org/2000/svg" p-id="11183" xmlns:xlink="http://www.w3.org/1999/xlink" width="205.6640625" height="200"><path d="M528.559543 985.848686c263.460571 0 477.037714-213.577143 477.037714-477.008457 0-263.460571-213.577143-477.037714-477.037714-477.037715-263.460571 0-477.037714 213.577143-477.037714 477.037715 0 263.460571 213.577143 477.008457 477.037714 477.008457z m0 31.802514C247.515429 1017.6512 19.719314 789.855086 19.719314 508.840229 19.719314 227.825371 247.544686 0 528.559543 0s508.840229 227.825371 508.840228 508.840229-227.825371 508.810971-508.840228 508.810971z" fill="#479EFF" p-id="11184"></path><path d="M661.240686 580.432457a222.0032 222.0032 0 0 0-49.327543-28.320914 161.938286 161.938286 0 0 0 73.757257-136.513829c0-43.037257-16.384-83.529143-46.197029-113.985828a154.975086 154.975086 0 0 0-111.498971-47.191772c-42.130286 0-81.744457 16.764343-111.528229 47.191772a161.938286 161.938286 0 0 0-46.197028 113.985828 161.938286 161.938286 0 0 0 74.020571 136.660115 1.784686 1.784686 0 0 1-0.175543 0.087771h0.087772a222.559086 222.559086 0 0 0-65.243429 41.632914 229.844114 229.844114 0 0 0-72.879543 143.681829 16.822857 16.822857 0 0 0 16.442515 18.870857 16.676571 16.676571 0 0 0 16.413257-14.979657 195.818057 195.818057 0 0 1 62.112914-122.411886 187.889371 187.889371 0 0 1 127.1808-49.737143c41.1648 0 80.369371 13.224229 113.342172 38.180572 7.314286 5.558857 17.700571 4.008229 23.113142-3.510857a17.144686 17.144686 0 0 0-3.423085-23.639772z m-221.3888-74.781257a127.970743 127.970743 0 0 1-36.512915-90.053486c0-34.026057 12.960914-66.004114 36.512915-90.053485a122.4704 122.4704 0 0 1 88.122514-37.302858c33.265371 0 64.570514 13.253486 88.093257 37.302858a127.970743 127.970743 0 0 1 36.512914 90.053485 127.970743 127.970743 0 0 1-36.512914 90.053486 123.377371 123.377371 0 0 1-54.418286 32.621714 123.465143 123.465143 0 0 1-67.3792 0h-0.058514a123.348114 123.348114 0 0 1-54.359771-32.621714z m326.568228 163.371886h-42.539885V625.517714a16.735086 16.735086 0 0 0-16.559543-16.910628 16.735086 16.735086 0 0 0-16.530286 16.910628v43.505372h-42.569143a16.735086 16.735086 0 0 0-16.559543 16.910628c0 9.333029 7.431314 16.910629 16.559543 16.910629h42.569143v43.505371c0 9.333029 7.402057 16.910629 16.530286 16.910629a16.735086 16.735086 0 0 0 16.559543-16.910629v-43.505371h42.539885a16.735086 16.735086 0 0 0 16.559543-16.910629 16.735086 16.735086 0 0 0-16.559543-16.910628z" fill="#479EFF" p-id="11185"></path></svg>