<?xml version="1.0" standalone="no"?><!DOCTYPE svg PUBLIC "-//W3C//DTD SVG 1.1//EN" "http://www.w3.org/Graphics/SVG/1.1/DTD/svg11.dtd"><svg t="1737792676981" class="icon" viewBox="0 0 1024 1024" version="1.1" xmlns="http://www.w3.org/2000/svg" p-id="8225" xmlns:xlink="http://www.w3.org/1999/xlink" width="200" height="200"><path d="M768 585.142857q76 0 129.428571 53.428571t53.428571 129.428571-53.428571 129.428571-129.428571 53.428571-129.428571-53.428571-53.428571-129.428571q0-6.857143 1.142857-19.428571l-205.714286-102.857143q-52.571429 49.142857-124.571429 49.142857-76 0-129.428571-53.428571t-53.428571-129.428571 53.428571-129.428571 129.428571-53.428571q72 0 124.571429 49.142857l205.714286-102.857143q-1.142857-12.571429-1.142857-19.428571 0-76 53.428571-129.428571t129.428571-53.428571 129.428571 53.428571 53.428571 129.428571-53.428571 129.428571-129.428571 53.428571q-72 0-124.571429-49.142857l-205.714286 102.857143q1.142857 12.571429 1.142857 19.428571t-1.142857 19.428571l205.714286 102.857143q52.571429-49.142857 124.571429-49.142857z" p-id="8226"></path></svg>